<?xml version="1.0" standalone="no"?>
<!DOCTYPE svg PUBLIC "-//W3C//DTD SVG 20010904//EN"
 "http://www.w3.org/TR/2001/REC-SVG-20010904/DTD/svg10.dtd">
<svg version="1.0" xmlns="http://www.w3.org/2000/svg"
 width="620.000000pt" height="402.000000pt" viewBox="0 0 620.000000 402.000000"
 preserveAspectRatio="xMidYMid meet" >

<g transform="translate(0.000000,402.000000) scale(0.100000,-0.100000)"
fill="#ffffff" stroke="none">
<path d="M2431 3492 c-30 -20 -61 -41 -70 -47 -70 -46 -221 -245 -221 -291 0
-7 -4 -14 -9 -16 -5 -1 -21 -39 -36 -83 -39 -113 -47 -310 -17 -434 12 -45 24
-86 27 -90 4 -3 22 10 40 30 32 35 33 39 23 80 -5 25 -8 110 -5 194 5 154 19
219 60 276 l17 24 -7 -30 c-4 -16 -8 -95 -8 -175 0 -112 4 -160 19 -212 l19
-67 38 22 c44 25 44 28 24 112 -34 142 -2 354 75 489 23 42 103 149 133 178
20 21 21 29 5 50 -25 31 -51 28 -107 -10z"/>
<path d="M3581 3514 c-23 -17 -28 -59 -8 -67 30 -11 137 -170 166 -247 34 -86
61 -210 61 -275 0 -36 -23 -176 -35 -216 -6 -18 70 -66 80 -49 33 54 51 281
32 425 l-7 60 20 -40 c36 -69 53 -155 57 -283 3 -91 0 -137 -12 -177 l-15 -54
36 -36 c32 -33 37 -35 48 -19 15 19 46 209 46 274 0 59 -25 208 -44 262 -13
39 -50 114 -87 177 -43 75 -192 220 -263 256 -42 22 -54 23 -75 9z"/>
<path d="M2728 3286 c-10 -7 -18 -18 -18 -25 0 -6 -4 -11 -9 -11 -17 0 -111
-171 -111 -203 0 -9 -4 -18 -9 -21 -11 -7 -38 -132 -45 -203 -6 -58 -2 -61 52
-42 19 7 34 21 40 37 9 27 9 27 16 5 7 -23 30 -28 71 -17 19 5 20 12 17 75 -4
66 21 240 38 264 15 22 32 106 26 130 -7 28 -39 34 -68 11z"/>
<path d="M3312 3288 c-16 -16 -15 -60 3 -84 8 -10 15 -29 15 -41 0 -12 4 -24
9 -27 14 -9 32 -159 30 -243 -2 -83 4 -93 58 -93 22 0 33 5 36 18 3 14 6 12
15 -9 10 -25 36 -39 75 -39 22 0 23 57 3 150 -25 113 -56 186 -119 282 -48 71
-68 94 -87 96 -14 2 -31 -3 -38 -10z"/>
<path d="M1768 2943 c-61 -177 -69 -346 -24 -522 17 -66 77 -191 108 -225 10
-11 18 -24 18 -29 0 -10 131 -149 136 -144 8 7 -35 172 -47 181 -15 12 -34 40
-46 66 -4 8 -16 31 -28 50 -28 47 -58 142 -53 166 4 15 9 11 22 -20 17 -37 55
-94 84 -125 7 -8 21 -25 30 -39 l16 -24 18 56 c18 56 18 57 -2 79 -28 29 -83
138 -111 218 -17 50 -23 96 -28 209 l-6 145 -35 3 c-34 3 -36 1 -52 -45z"/>
<path d="M4252 2978 c-5 -7 -12 -78 -14 -158 -4 -98 -11 -161 -22 -195 -24
-71 -98 -216 -113 -222 -17 -7 -17 -52 0 -92 l13 -31 35 37 c42 46 66 83 98
148 21 42 25 46 29 27 5 -29 -56 -189 -91 -236 -4 -6 -22 -31 -41 -56 -18 -25
-36 -61 -39 -80 -3 -19 -10 -52 -15 -72 -5 -21 -8 -38 -5 -38 2 0 32 28 66 63
98 98 160 199 196 317 12 41 27 89 32 106 17 59 11 268 -11 350 -34 124 -44
144 -78 144 -16 0 -34 -6 -40 -12z"/>
<path d="M2835 2755 c-174 -24 -285 -51 -383 -96 -35 -16 -67 -29 -72 -29 -10
0 -159 -106 -180 -129 -31 -32 -100 -140 -117 -182 -22 -54 -26 -280 -6 -301
7 -6 13 -19 13 -29 0 -14 13 -41 76 -158 11 -19 29 -44 42 -56 12 -12 22 -25
22 -28 0 -10 120 -127 130 -127 4 0 10 -3 12 -8 5 -13 140 -97 193 -121 28
-12 57 -26 65 -30 8 -4 42 -15 75 -25 33 -11 69 -23 80 -28 65 -28 472 -26
525 2 10 6 26 10 35 10 9 0 31 6 48 14 18 7 59 24 92 37 114 44 228 120 326
218 80 80 126 144 180 251 32 65 33 66 33 217 1 109 -3 155 -11 164 -7 7 -13
19 -13 27 0 33 -162 222 -190 222 -6 0 -10 4 -10 10 0 5 -11 12 -25 16 -14 3
-25 10 -25 15 0 5 -5 9 -11 9 -6 0 -39 13 -73 29 -214 101 -549 143 -831 106z
m530 -110 c44 -8 105 -23 135 -32 66 -19 250 -104 250 -115 0 -4 5 -8 11 -8
16 0 117 -107 136 -144 54 -104 55 -262 2 -381 -38 -86 -154 -225 -233 -280
-16 -11 -41 -30 -57 -43 -58 -48 -225 -117 -354 -147 -97 -23 -339 -23 -420 0
-85 24 -209 67 -215 75 -3 4 -20 12 -38 18 -87 30 -258 178 -326 282 -84 128
-91 150 -91 290 0 125 0 126 34 180 55 88 136 159 245 213 53 26 104 47 114
47 10 0 22 4 27 9 11 11 154 39 260 51 106 13 427 4 520 -15z"/>
<path d="M2348 2208 c-60 -21 -58 -133 3 -203 38 -43 86 -59 152 -51 82 11
114 60 86 132 -16 43 -96 111 -145 123 -50 13 -60 13 -96 -1z"/>
<path d="M3644 2210 c-41 -9 -112 -60 -120 -85 -4 -11 -11 -23 -16 -26 -5 -3
-12 -25 -15 -48 -7 -55 21 -87 83 -97 67 -10 110 3 153 44 73 70 78 187 9 211
-34 12 -48 12 -94 1z"/>
<path d="M1845 1753 c-56 -28 -104 -77 -137 -137 -28 -54 -32 -176 -6 -203 19
-18 71 -23 125 -11 25 6 39 2 68 -18 50 -33 94 -34 144 -1 38 25 44 26 88 17
95 -22 128 4 127 100 0 110 -54 195 -157 249 -78 42 -176 43 -252 4z m176 -73
c49 -14 113 -72 133 -119 23 -60 16 -68 -59 -63 -44 3 -65 1 -65 -7 0 -6 -6
-11 -14 -11 -8 0 -22 -7 -31 -16 -15 -15 -17 -15 -34 0 -10 9 -23 16 -29 16
-7 0 -12 5 -12 11 0 7 -23 10 -67 8 l-68 -4 3 35 c3 34 40 93 76 120 23 17 82
38 111 39 11 1 36 -4 56 -9z"/>
<path d="M4010 1749 c-30 -16 -67 -41 -81 -55 -87 -83 -107 -282 -30 -299 15
-3 49 -1 74 5 43 9 51 8 104 -20 52 -27 62 -29 91 -19 17 6 32 14 32 18 0 20
52 31 98 20 94 -21 122 2 122 101 0 55 -5 81 -25 120 -73 144 -250 204 -385
129z m196 -74 c46 -19 112 -86 120 -122 3 -16 7 -33 9 -40 6 -19 -6 -22 -55
-13 -37 7 -52 5 -85 -12 -22 -11 -43 -25 -47 -31 -5 -8 -12 -7 -25 4 -38 32
-72 42 -123 37 -28 -3 -53 -1 -56 3 -12 20 19 91 55 126 63 60 137 77 207 48z"/>
<path d="M1775 992 c-73 -50 -74 -58 -75 -399 l0 -303 40 0 40 0 0 160 0 160
85 0 85 0 0 -154 c0 -166 0 -166 56 -166 l25 0 -3 318 -3 317 -30 34 c-41 45
-75 61 -132 61 -36 -1 -58 -8 -88 -28z m144 -81 c30 -28 31 -31 31 -120 l0
-91 -85 0 -85 0 0 83 c1 89 12 122 51 143 36 20 54 17 88 -15z"/>
<path d="M2172 933 c4 -86 5 -90 56 -172 29 -46 52 -94 52 -105 0 -11 -24 -61
-52 -111 -52 -88 -53 -92 -53 -170 l0 -80 36 -3 c41 -3 48 9 49 88 1 46 52
159 76 167 7 2 27 -22 45 -54 27 -46 35 -73 39 -128 l5 -70 40 0 40 0 -1 75
c0 56 -6 87 -22 120 -22 46 -43 81 -52 90 -15 14 -37 75 -32 89 3 9 21 40 39
70 55 86 74 145 71 215 l-3 61 -42 3 -43 3 0 -71 c0 -59 -4 -77 -25 -108 -14
-20 -25 -42 -25 -48 0 -6 -7 -17 -15 -24 -21 -17 -38 -1 -70 65 -16 35 -25 71
-25 104 0 72 -6 81 -52 81 l-40 0 4 -87z"/>
<path d="M2723 994 c-71 -47 -73 -53 -74 -310 -2 -314 -6 -288 44 -338 85 -85
203 -69 270 36 15 24 17 57 17 273 0 263 -1 267 -55 321 -54 53 -136 61 -202
18z m146 -85 l31 -31 0 -218 0 -218 -26 -31 c-35 -42 -92 -44 -123 -5 -20 25
-21 39 -21 253 l0 226 28 27 c37 36 73 36 111 -3z"/>
<path d="M3117 1013 c-4 -3 -7 -160 -7 -348 0 -319 1 -343 18 -358 15 -14 40
-17 120 -17 l102 0 0 45 0 45 -75 0 -75 0 0 320 0 320 -38 0 c-21 0 -42 -3
-45 -7z"/>
<path d="M3522 1005 c-42 -23 -81 -76 -87 -119 -4 -22 -5 -144 -3 -269 l3
-228 48 -46 c47 -45 51 -47 112 -47 56 -1 67 2 102 30 69 55 72 70 73 325 0
272 -6 296 -92 352 -32 20 -121 22 -156 2z m111 -76 c42 -19 47 -46 47 -278 0
-206 -1 -220 -21 -245 -27 -34 -92 -37 -120 -4 -17 19 -19 41 -19 255 l0 234
26 24 c30 27 51 31 87 14z"/>
<path d="M3840 980 l0 -40 45 0 45 0 0 -320 0 -320 24 -6 c14 -3 33 -4 43 -2
17 3 18 23 23 323 l5 320 43 3 c42 3 42 3 42 43 l0 39 -135 0 -135 0 0 -40z"/>
<path d="M4230 671 c0 -308 2 -351 16 -366 13 -13 35 -15 117 -13 110 3 117 7
103 64 -6 23 -11 24 -76 24 l-70 0 -2 318 -3 317 -42 3 -43 3 0 -350z"/>
</g>
</svg>
